<?xml version="1.0" encoding="utf-8"?>
<!-- Generator: Adobe Illustrator 16.0.0, SVG Export Plug-In . SVG Version: 6.00 Build 0)  -->
<!DOCTYPE svg PUBLIC "-//W3C//DTD SVG 1.1//EN" "http://www.w3.org/Graphics/SVG/1.1/DTD/svg11.dtd">
<svg version="1.1" id="Layer_1" xmlns="http://www.w3.org/2000/svg" xmlns:xlink="http://www.w3.org/1999/xlink" x="0px" y="0px"
	 width="242.396px" height="78.715px" viewBox="0 0 242.396 78.715" enable-background="new 0 0 242.396 78.715"
	 xml:space="preserve">
<g opacity="0.2">
	<g>
		<g>
			<g>
				<path fill="#161616" d="M152.415,6.895c-5.769-0.839-13.681,1.542-17.28,6.715c-3.604,5.174-6.933,5.08-9.244,6.117
					c-2.314,1.038-3.208,1.792-4.584-2.239c-4.31-12.22-9.466-15.918-16.393-16.928c-6.926-1.01-10.275,2.432-12.34,3.114
					c-2.063,0.681-4.259,2.938-2.143,4.598c5.665,4.264,22.733,5.771,24.218,5.692c1.485-0.079,2.735,2.233,3.637,4.008
					c0.559,1.102,2.214,3.42,1.305,6.078c-20.847,38.662-12.088,54.155-12.088,54.155s3.341-0.106,6.233,0.088
					c-12.576-21.078,8.322-51.296,10.202-53.37c1.879-2.076,8.164-3.996,8.164-3.996s1.865-0.69,2.637,0.779
					c3.06,6.635,7.537,8.269,12.537,8.998c5.002,0.729,19.373-0.811,20.595-9.178C169.087,13.157,158.188,7.736,152.415,6.895z
					 M152.655,16.654c-10.372-1.512-14.494,1.507-14.494,1.507s4.865-4.229,13.655-2.946c8.794,1.281,12.762,5.87,12.762,5.87
					S161.096,17.883,152.655,16.654z"/>
			</g>
			<g>
				<path fill="none" stroke="#AEAEAE" stroke-width="0.75" d="M152.415,6.895c-5.769-0.839-13.681,1.542-17.28,6.715
					c-3.604,5.174-6.933,5.08-9.244,6.117c-2.314,1.038-3.208,1.792-4.584-2.239c-4.31-12.22-9.466-15.918-16.393-16.928
					c-6.926-1.01-10.275,2.432-12.34,3.114c-2.063,0.681-4.259,2.938-2.143,4.598c5.665,4.264,22.733,5.771,24.218,5.692
					c1.485-0.079,2.735,2.233,3.637,4.008c0.559,1.102,2.214,3.42,1.305,6.078c-20.847,38.662-12.088,54.155-12.088,54.155
					s3.341-0.106,6.233,0.088c-12.576-21.078,8.322-51.296,10.202-53.37c1.879-2.076,8.164-3.996,8.164-3.996
					s1.865-0.69,2.637,0.779c3.06,6.635,7.537,8.269,12.537,8.998c5.002,0.729,19.373-0.811,20.595-9.178
					C169.087,13.157,158.188,7.736,152.415,6.895z M152.655,16.654c-10.372-1.512-14.494,1.507-14.494,1.507
					s4.865-4.229,13.655-2.946c8.794,1.281,12.762,5.87,12.762,5.87S161.096,17.883,152.655,16.654z"/>
			</g>
		</g>
		<g>
			<path fill="#AEAEAE" stroke="#161616" stroke-width="0.75" d="M3.529,53.35c0.17-0.597,0.469-1.448,0.469-1.749
				c0-0.34-0.213-0.51-0.469-0.51H2.292c-0.425,0-0.767-0.298-0.767-0.684c0-0.382,0.171-0.681,0.64-0.852l7.798-2.727
				c0.341-0.128,0.725-0.255,1.023-0.255c0.555,0,0.725,0.383,0.725,0.767c0,0.211-0.127,0.683-0.256,1.107l-4.39,14.404
				c-0.127,0.426-0.213,0.724-0.213,1.022c0,0.471,0.256,0.64,0.597,0.64c0.256,0,0.468-0.084,1.107-0.469l0.725-0.47
				c0.47-0.298,0.639-0.341,1.066-0.341c0.596,0,1.022,0.599,1.022,1.195c0,1.491-2.983,4.602-6.393,4.602
				c-2.174,0-4.603-1.236-4.603-4.176c0-0.639,0.17-1.45,0.427-2.258L3.529,53.35z M10.987,38.264c1.363,0,2.558,0.809,2.558,2.343
				c0,2.387-2.13,4.475-4.518,4.475c-1.364,0-2.557-0.81-2.557-2.303C6.47,40.353,8.6,38.264,10.987,38.264z"/>
			<path fill="#AEAEAE" stroke="#161616" stroke-width="0.75" d="M17.25,53.137c0.256-0.897,0.426-1.493,0.426-1.791
				c0-0.468-0.212-0.768-0.724-0.768h-1.236c-0.682,0-0.852-0.467-0.852-0.852c0-0.469,0.213-0.725,0.81-0.938l7.841-2.515
				c0.81-0.256,1.107-0.341,1.407-0.341c0.298,0,0.426,0.171,0.426,0.426c0,0.17-0.042,0.47-0.213,1.024l-0.382,1.277h0.084
				c1.492-1.533,3.794-2.087,5.967-2.087c3.197,0,5.455,1.832,5.455,5.069c0,1.193-0.341,3.154-0.895,5.114l-1.492,4.945
				c-0.426,1.406-0.597,1.96-0.597,2.302c0,0.383,0.341,0.51,0.725,0.51c1.064,0,1.833-1.193,2.727-1.193
				c0.81,0,1.108,0.597,1.108,1.277c0,1.194-3.068,4.434-6.393,4.434c-2.641,0-4.644-1.619-4.644-4.134
				c0-0.553,0.126-1.278,0.467-2.387l1.961-6.819c0.299-1.022,0.553-1.789,0.553-2.385c0-1.194-1.022-1.962-2.386-1.962
				c-2.301,0-4.005,1.919-4.474,3.582L19.04,68.606h-6.137L17.25,53.137z"/>
			<path fill="#AEAEAE" stroke="#161616" stroke-width="0.75" d="M53.303,46.574c1.662,0,3.153,0.425,4.092,1.532l1.107-3.408
				c0.127-0.427,0.17-0.725,0.17-0.981c0-0.297-0.211-0.468-0.596-0.468h-1.193c-0.468,0-0.81-0.256-0.81-0.811
				c0-0.895,1.193-1.193,1.875-1.405l6.648-2.558c0.342-0.128,0.639-0.212,0.896-0.212c0.383,0,0.767,0.297,0.767,0.723
				c0,0.214-0.17,0.81-0.299,1.28l-6.478,22.289c-0.129,0.425-0.213,0.723-0.213,1.021c0,0.386,0.342,0.684,0.554,0.684
				c0.255,0,0.553-0.042,0.895-0.255l1.066-0.643c0.256-0.169,0.468-0.253,0.767-0.253c0.512,0,1.108,0.554,1.108,1.321
				c0,0.938-2.386,4.602-6.52,4.602c-1.663,0-3.069-0.809-3.623-2.729c-2.472,2.005-3.921,2.729-7.032,2.729
				c-4.262,0-6.393-3.707-6.393-6.945C40.091,54.585,46.355,46.574,53.303,46.574z M48.998,64.771c5.115,0,6.606-10.4,6.606-11.763
				c0-1.321-0.853-2.43-2.429-2.43c-4.177,0-6.605,7.544-6.605,10.57C46.569,62.98,47.378,64.771,48.998,64.771z"/>
			<path fill="#AEAEAE" stroke="#161616" stroke-width="0.75" d="M69.068,53.35c0.171-0.597,0.47-1.448,0.47-1.749
				c0-0.34-0.213-0.51-0.47-0.51h-1.235c-0.427,0-0.767-0.298-0.767-0.684c0-0.382,0.17-0.681,0.639-0.852l7.8-2.727
				c0.34-0.128,0.724-0.255,1.021-0.255c0.554,0,0.725,0.383,0.725,0.767c0,0.211-0.128,0.683-0.256,1.107l-4.39,14.404
				c-0.127,0.426-0.212,0.724-0.212,1.022c0,0.471,0.255,0.64,0.596,0.64c0.255,0,0.47-0.084,1.108-0.469l0.725-0.47
				c0.468-0.298,0.64-0.341,1.065-0.341c0.596,0,1.023,0.599,1.023,1.195c0,1.491-2.984,4.602-6.393,4.602
				c-2.173,0-4.603-1.236-4.603-4.176c0-0.639,0.171-1.45,0.426-2.258L69.068,53.35z M76.526,38.264
				c1.365,0,2.557,0.809,2.557,2.343c0,2.387-2.13,4.475-4.518,4.475c-1.364,0-2.557-0.81-2.557-2.303
				C72.008,40.353,74.14,38.264,76.526,38.264z"/>
			<path fill="#AEAEAE" stroke="#161616" stroke-width="0.75" d="M93.444,46.574c4.688,0,6.946,2.599,6.946,5.624
				c0,4.688-6.307,7.885-12.103,7.885h-2.855c-0.17,0.384-0.17,0.851-0.17,1.32c0,1.832,1.619,3.367,4.048,3.367
				c3.41,0,5.968-2.259,7.16-2.259c0.683,0,1.065,0.682,1.065,1.363c0,1.832-5.625,5.157-10.314,5.157
				c-4.943,0-8.438-3.41-8.438-8.055C78.784,53.818,85.048,46.574,93.444,46.574z M86.114,56.333h0.639
				c2.941,0,7.416-2.088,7.416-4.135c0-0.938-0.469-1.874-1.917-1.874C89.651,50.324,87.052,54.074,86.114,56.333z"/>
		</g>
		<g>
			<path fill="#AEAEAE" stroke="#161616" stroke-width="0.75" d="M130.352,46.574h0.042c4.433,0,8.354,2.981,8.354,8.182
				c0,3.622-3.624,14.276-13.937,14.276c-4.944,0-8.438-3.41-8.438-7.97C116.373,53.521,122.211,46.574,130.352,46.574z
				 M125.621,65.281c4.391,0,6.647-8.693,6.647-11.592c0-2.13-1.065-3.365-2.685-3.365c-3.623,0-6.819,6.988-6.734,11.889
				C122.85,64.346,124.214,65.281,125.621,65.281z"/>
			<path fill="#AEAEAE" stroke="#161616" stroke-width="0.75" d="M144.625,51.943c0.085-0.257,0.128-0.469,0.128-0.64
				c0-0.255-0.298-0.469-0.639-0.469h-1.149c-0.641,0-0.77-0.469-0.77-0.896c0-0.596,0.216-0.937,0.98-1.191l7.672-2.559
				c0.47-0.127,0.895-0.255,1.236-0.255c0.381,0,0.596,0.255,0.596,0.683c0,0.128-0.086,0.427-0.171,0.684l-0.425,1.447h0.086
				c1.405-1.11,3.706-2.173,5.795-2.173c0.724,0,1.662,0.083,2.173,0.425l-1.237,6.266c-0.254,1.233-1.146,2.087-2.427,2.087
				c-0.853,0-1.193-0.341-1.365-1.064l-0.852-2.941c-2.301,0.255-3.409,1.279-4.092,3.624l-4.049,13.637h-6.563L144.625,51.943z"/>
			<path fill="#AEAEAE" stroke="#161616" stroke-width="0.75" d="M162.778,51.943c0.086-0.257,0.128-0.469,0.128-0.64
				c0-0.255-0.298-0.469-0.639-0.469h-1.149c-0.641,0-0.769-0.469-0.769-0.896c0-0.596,0.214-0.937,0.98-1.191l7.672-2.559
				c0.468-0.127,0.894-0.255,1.235-0.255c0.383,0,0.598,0.255,0.598,0.683c0,0.128-0.087,0.427-0.172,0.684l-0.426,1.447h0.087
				c1.404-1.11,3.707-2.173,5.793-2.173c0.727,0,1.664,0.083,2.174,0.425l-1.234,6.266c-0.256,1.233-1.152,2.087-2.43,2.087
				c-0.853,0-1.194-0.341-1.364-1.064l-0.851-2.941c-2.303,0.255-3.41,1.279-4.093,3.624l-4.049,13.637h-6.563L162.778,51.943z"/>
			<path fill="#AEAEAE" stroke="#161616" stroke-width="0.75" d="M191.374,46.574c4.688,0,6.946,2.599,6.946,5.624
				c0,4.688-6.307,7.885-12.102,7.885h-2.857c-0.169,0.384-0.169,0.851-0.169,1.32c0,1.832,1.617,3.367,4.048,3.367
				c3.408,0,5.966-2.259,7.161-2.259c0.68,0,1.064,0.682,1.064,1.363c0,1.832-5.625,5.157-10.315,5.157
				c-4.944,0-8.437-3.41-8.437-8.055C176.714,53.818,182.978,46.574,191.374,46.574z M184.044,56.333h0.639
				c2.941,0,7.416-2.088,7.416-4.135c0-0.938-0.469-1.874-1.917-1.874C187.582,50.324,184.98,54.074,184.044,56.333z"/>
			<path fill="#AEAEAE" stroke="#161616" stroke-width="0.75" d="M202.836,53.137c0.256-0.897,0.426-1.493,0.426-1.791
				c0-0.468-0.211-0.768-0.724-0.768h-1.237c-0.68,0-0.852-0.467-0.852-0.852c0-0.469,0.215-0.725,0.81-0.938l7.842-2.515
				c0.811-0.256,1.109-0.341,1.406-0.341c0.3,0,0.428,0.171,0.428,0.426c0,0.17-0.044,0.47-0.213,1.024l-0.386,1.277h0.086
				c1.493-1.533,3.794-2.087,5.967-2.087c3.195,0,5.456,1.832,5.456,5.069c0,1.193-0.342,3.154-0.896,5.114l-1.49,4.945
				c-0.428,1.406-0.598,1.96-0.598,2.302c0,0.383,0.34,0.51,0.724,0.51c1.065,0,1.834-1.193,2.729-1.193
				c0.81,0,1.107,0.597,1.107,1.277c0,1.194-3.066,4.434-6.393,4.434c-2.643,0-4.645-1.619-4.645-4.134
				c0-0.553,0.129-1.278,0.467-2.387l1.963-6.819c0.297-1.022,0.554-1.789,0.554-2.385c0-1.194-1.024-1.962-2.387-1.962
				c-2.302,0-4.006,1.919-4.475,3.582l-3.878,13.679h-6.137L202.836,53.137z"/>
			<path fill="#AEAEAE" stroke="#161616" stroke-width="0.75" d="M229.682,51.006h-1.746c-0.852,0-1.065-0.342-1.065-0.812
				c0-0.552,0.256-0.937,0.938-1.278c3.239-1.532,4.943-2.77,6.563-6.094c0.683-1.407,1.532-1.916,2.686-1.916
				c1.065,0,1.534,0.424,1.534,0.979c0,0.299-0.086,0.768-0.215,1.194l-1.149,3.92h4.516l-1.619,4.007h-4.092l-3.194,11.421
				c-0.214,0.767-0.342,1.236-0.342,1.662c0,0.468,0.511,0.938,1.194,0.938c0.296,0,0.597-0.042,0.895-0.17l1.405-0.553
				c0.342-0.129,0.598-0.215,0.854-0.215c0.639,0,1.065,0.51,1.065,0.98c0,1.364-3.495,3.963-6.946,3.963
				c-2.982,0-4.944-1.832-4.944-4.22c0-0.553,0.084-1.321,0.213-1.79L229.682,51.006z"/>
		</g>
	</g>
	<g>
		<path d="M239.747,65.236c0.431,0,0.609,0.287,0.609,0.91c0,0.195-0.016,0.394-0.049,0.605l-0.36-0.038
			c0.025-0.167,0.041-0.336,0.041-0.496c0-0.393-0.046-0.583-0.174-0.583c-0.119,0-0.153,0.067-0.153,0.22v0.242
			c0,0.216,0.065,0.436,0.157,0.686l0.292,0.803c0.147,0.404,0.221,0.727,0.221,0.968v0.16c0,0.485-0.206,0.734-0.588,0.734
			c-0.437,0-0.626-0.29-0.626-0.91c0-0.229,0.018-0.449,0.053-0.661l0.361,0.043c-0.029,0.174-0.044,0.349-0.044,0.526
			c0,0.395,0.065,0.594,0.198,0.594c0.093,0,0.124-0.062,0.124-0.194v-0.229c0-0.262-0.047-0.513-0.119-0.708l-0.286-0.768
			c-0.149-0.397-0.261-0.737-0.261-1.054v-0.215C239.144,65.472,239.374,65.236,239.747,65.236z"/>
		<path d="M241.949,69.383v-2.411h-0.01l-0.297,2.411h-0.287l-0.311-2.411v2.411h-0.452v-4.096h0.578l0.333,2.505h0.014l0.36-2.505
			h0.519v4.096H241.949z"/>
	</g>
</g>
</svg>
