<?xml version="1.0" standalone="no"?>
<!DOCTYPE svg PUBLIC "-//W3C//DTD SVG 20010904//EN"
 "http://www.w3.org/TR/2001/REC-SVG-20010904/DTD/svg10.dtd">
<svg version="1.0" xmlns="http://www.w3.org/2000/svg"
 width="2048.000000pt" height="2048.000000pt" viewBox="0 0 2048.000000 2048.000000"
 preserveAspectRatio="xMidYMid meet">
<metadata>
Created by potrace 1.11, written by Peter Selinger 2001-2013
</metadata>
<g transform="translate(0.000000,2048.000000) scale(0.100000,-0.100000)"
fill="#000000" stroke="none">
<path d="M8688 13475 c-2 -1 -43 -5 -93 -9 -126 -9 -208 -27 -325 -72 -64 -25
-111 -48 -309 -152 -56 -29 -103 -52 -106 -52 -3 1 -26 -9 -52 -22 -74 -37
-168 -135 -176 -183 -1 -11 -6 -25 -9 -31 -7 -11 -6 -25 7 -86 17 -75 177
-178 419 -267 138 -52 383 -121 482 -137 21 -3 43 -8 47 -11 4 -2 20 -6 35 -8
15 -3 38 -7 52 -10 14 -3 50 -9 80 -15 30 -6 66 -12 80 -15 14 -3 48 -8 75
-11 28 -3 53 -8 57 -10 4 -3 31 -7 60 -10 50 -4 93 -11 93 -14 0 -1 23 -3 50
-6 28 -2 64 -6 80 -9 17 -3 50 -8 75 -10 25 -3 65 -7 90 -9 81 -8 204 -18 261
-20 108 -4 165 -68 306 -336 74 -142 102 -219 106 -295 5 -85 -8 -133 -62
-232 -89 -163 -301 -593 -294 -593 5 0 3 -4 -2 -8 -10 -7 -18 -22 -48 -92 -9
-19 -32 -71 -52 -115 -57 -125 -70 -155 -100 -230 -16 -38 -36 -88 -46 -110
-19 -42 -109 -273 -114 -290 -1 -5 -5 -17 -8 -25 -43 -105 -177 -511 -177
-537 0 -7 -4 -13 -8 -13 -4 0 -8 -8 -8 -17 -1 -10 -15 -71 -33 -136 -18 -64
-34 -125 -36 -135 -2 -9 -12 -53 -23 -97 -26 -98 -78 -372 -92 -480 -6 -44
-12 -91 -15 -105 -4 -25 -9 -75 -22 -245 -13 -169 -7 -484 12 -620 3 -22 8
-53 10 -70 18 -134 66 -310 108 -394 l22 -45 255 -2 c140 -1 270 -5 288 -8 17
-4 32 -3 32 0 0 3 -20 41 -44 84 -50 89 -100 193 -129 265 -29 75 -95 278
-100 311 -3 16 -13 62 -21 103 -9 41 -14 76 -12 79 3 2 1 12 -3 21 -10 18 -21
111 -25 205 -2 35 -5 67 -8 72 -11 22 3 433 18 514 2 14 6 45 9 70 8 73 23
175 30 200 2 8 7 31 10 50 24 145 106 448 175 645 17 50 33 97 35 105 2 8 17
48 34 89 17 41 31 80 31 87 0 8 5 14 11 14 5 0 8 4 5 8 -2 4 6 29 19 55 14 26
22 47 20 47 -2 0 11 33 29 73 122 267 219 459 329 652 22 39 48 86 59 105 72
129 282 441 331 493 51 53 113 96 210 145 40 20 74 37 77 37 3 1 17 7 33 13
15 7 39 17 55 24 15 6 29 12 32 12 3 1 10 4 15 7 10 6 85 33 95 34 3 0 10 3
15 7 25 15 151 48 186 48 54 0 83 -16 106 -59 10 -20 35 -65 53 -101 80 -151
211 -308 335 -400 33 -25 62 -48 65 -51 14 -16 225 -109 290 -128 41 -12 89
-25 105 -30 38 -12 102 -22 240 -40 103 -14 385 -6 520 15 17 2 48 7 70 10
335 49 686 194 856 355 60 57 139 156 139 174 0 8 3 15 8 15 7 0 45 90 56 135
28 108 25 320 -5 378 -6 9 -8 17 -5 17 3 0 -6 27 -20 59 -107 265 -360 502
-719 675 -38 18 -73 34 -77 35 -5 1 -34 13 -65 27 -78 34 -229 78 -338 99
-123 23 -379 23 -495 0 -14 -3 -41 -8 -60 -11 -70 -13 -206 -51 -290 -82 -8
-3 -17 -6 -20 -6 -3 -1 -21 -8 -40 -17 -19 -9 -53 -25 -75 -35 -57 -26 -159
-86 -163 -96 -2 -4 -8 -8 -14 -8 -15 0 -135 -96 -199 -159 -30 -31 -89 -101
-129 -156 -71 -95 -131 -161 -213 -232 -20 -18 -39 -33 -42 -33 -3 0 -15 -9
-27 -20 -12 -11 -28 -20 -35 -20 -7 0 -13 -4 -13 -8 0 -7 -39 -27 -90 -47 -3
-1 -18 -7 -35 -14 -27 -11 -154 -54 -165 -56 -19 -3 -92 -32 -131 -51 -26 -13
-53 -24 -61 -24 -8 0 -18 -4 -24 -9 -5 -6 -24 -13 -43 -16 -71 -12 -107 38
-190 260 -85 229 -84 229 -186 435 -41 85 -93 182 -115 215 -22 33 -43 67 -47
75 -17 37 -137 183 -208 255 -209 210 -453 330 -775 381 -14 2 -61 6 -105 9
-44 4 -88 8 -97 9 -9 2 -18 3 -20 1z m3887 -1259 c50 -4 101 -8 115 -11 13 -3
42 -7 65 -11 22 -3 69 -12 105 -20 36 -8 76 -17 90 -20 40 -8 264 -86 276 -95
6 -5 14 -6 17 -2 4 3 7 1 7 -6 0 -9 -6 -11 -17 -6 -38 16 -281 76 -330 81 -29
4 -53 10 -53 13 0 3 -12 6 -27 6 -32 1 -135 13 -173 20 -29 6 -252 18 -325 18
-27 1 -104 -2 -170 -5 -89 -5 -110 -4 -80 3 73 19 196 36 268 38 40 1 73 4 75
5 1 2 17 2 35 0 17 -1 73 -5 122 -8z"/>
<path d="M1210 10389 c-194 -29 -352 -212 -345 -399 9 -235 331 -289 521 -88
109 115 144 290 77 390 -49 74 -150 112 -253 97z"/>
<path d="M6555 10392 c-2 -3 -20 -6 -39 -8 -100 -9 -240 -119 -292 -230 -24
-51 -28 -72 -28 -150 -1 -84 1 -93 27 -128 55 -71 113 -97 218 -97 129 1 277
95 339 216 102 203 19 383 -185 399 -20 1 -37 0 -40 -2z"/>
<path d="M5598 10372 c-26 -9 -50 -20 -54 -24 -4 -5 -16 -8 -26 -8 -10 0 -18
-4 -18 -8 0 -5 -6 -9 -12 -9 -7 0 -80 -26 -163 -58 -82 -32 -196 -75 -251 -95
-56 -21 -113 -45 -126 -54 -68 -45 -72 -150 -6 -177 18 -7 61 -13 97 -14 l66
0 -3 -30 c-2 -16 -10 -48 -18 -70 -8 -22 -16 -44 -18 -50 -1 -5 -12 -43 -25
-83 l-23 -72 -27 19 c-37 26 -125 61 -175 68 -113 18 -269 4 -369 -33 -23 -8
-46 -16 -52 -17 -38 -10 -176 -89 -246 -142 -219 -164 -394 -412 -483 -681
-29 -90 -31 -96 -52 -209 -58 -316 31 -574 247 -715 90 -58 155 -75 294 -75
130 0 191 7 263 31 66 23 168 77 229 123 l52 40 25 -43 c58 -100 148 -149 277
-153 102 -2 176 14 277 64 129 63 273 222 289 317 8 48 -13 102 -50 130 -56
42 -87 38 -193 -24 -38 -22 -74 -40 -81 -40 -25 0 -32 35 -17 79 8 23 15 53
16 67 1 13 5 24 9 24 4 0 9 12 12 28 6 32 10 46 37 137 11 39 22 77 24 85 2 8
20 69 40 135 38 126 43 144 50 173 5 21 148 513 174 597 10 33 19 63 20 68 1
4 2 8 3 10 0 1 2 9 4 17 8 31 67 236 72 250 3 8 7 20 9 27 2 13 39 137 54 186
5 15 7 27 4 27 -3 0 0 8 5 18 6 11 12 30 15 43 2 13 5 29 7 34 2 6 -1 24 -5
42 -14 61 -83 79 -178 45z m-871 -1047 c30 -4 53 -16 77 -40 54 -52 61 -103
35 -257 -81 -479 -255 -771 -469 -786 -74 -5 -115 22 -154 102 -23 49 -29 74
-30 144 -5 181 83 458 201 633 47 71 146 169 169 169 8 0 14 4 14 8 0 8 54 25
95 30 11 1 39 0 62 -3z"/>
<path d="M19548 10164 c-63 -19 -117 -73 -168 -169 -123 -229 -200 -305 -441
-434 -131 -71 -161 -99 -164 -157 -5 -81 24 -105 131 -108 40 -1 75 -4 78 -7
2 -2 -7 -42 -21 -89 -13 -47 -49 -170 -79 -275 -31 -104 -66 -228 -80 -275
-14 -47 -26 -92 -28 -100 -2 -8 -16 -55 -31 -105 -14 -49 -28 -101 -31 -115
-9 -53 -11 -180 -3 -185 4 -3 6 -12 3 -19 -9 -23 45 -124 91 -171 111 -112
290 -151 485 -105 89 21 243 92 295 135 146 121 179 203 110 272 -34 34 -38
36 -93 30 -31 -3 -90 -19 -131 -36 -87 -36 -140 -40 -166 -11 -21 23 -17 50
42 255 19 66 36 129 39 139 2 10 8 33 14 51 6 18 13 41 15 51 3 10 14 53 26
94 11 41 25 93 31 115 5 22 12 47 15 55 3 8 7 20 8 26 2 6 11 38 20 70 10 33
18 64 19 69 1 6 5 19 9 30 3 11 11 38 16 60 l11 41 165 -1 c91 -1 165 -1 165
0 0 1 34 84 75 186 42 101 74 188 71 194 -2 6 -67 10 -180 9 -97 -1 -176 2
-176 5 0 4 16 61 35 126 49 164 49 167 59 229 7 43 -11 85 -47 109 -35 23
-133 29 -189 11z"/>
<path d="M2322 9758 c-4 -4 -16 -9 -27 -11 -11 -2 -27 -7 -35 -10 -23 -9 -447
-144 -525 -167 -98 -29 -173 -68 -181 -93 -8 -26 -8 -69 1 -97 10 -33 57 -50
135 -50 64 0 71 -2 79 -22 5 -13 6 -27 3 -33 -4 -5 -8 -19 -10 -30 -5 -29 -10
-50 -12 -50 -1 0 -3 -7 -5 -15 -2 -8 -15 -55 -30 -105 -25 -86 -30 -104 -39
-142 -3 -10 -23 -83 -46 -163 -22 -80 -57 -201 -76 -270 -20 -69 -58 -204 -85
-300 -55 -195 -53 -186 -70 -255 -6 -27 -15 -57 -19 -65 -7 -13 26 -15 272
-15 238 0 281 2 288 15 4 8 31 101 60 205 29 105 56 199 61 210 8 20 35 118
45 164 3 13 9 31 13 40 7 13 16 48 25 101 1 3 4 10 8 16 4 6 9 21 12 35 7 35
12 54 41 154 14 50 28 98 30 108 2 9 6 21 9 25 3 5 7 21 10 35 10 56 56 137
105 187 69 69 146 104 231 104 140 -1 188 -69 150 -211 -24 -87 -95 -337 -110
-383 -6 -19 -13 -42 -15 -50 -1 -8 -9 -35 -16 -60 -7 -25 -14 -49 -15 -55 0
-5 -4 -17 -7 -25 -14 -35 -45 -160 -40 -160 3 0 0 -7 -7 -16 -13 -14 -18 -156
-7 -194 19 -70 45 -114 94 -163 101 -101 273 -141 431 -100 64 16 195 83 239
121 15 13 37 31 48 41 39 31 107 116 121 150 28 66 9 154 -39 180 -55 29 -109
18 -192 -39 -47 -33 -108 -49 -118 -33 -5 9 23 129 40 173 3 8 7 20 9 25 1 6
19 64 38 130 20 66 38 127 41 135 2 8 13 44 24 80 19 61 34 121 47 180 3 14 9
43 14 65 24 110 30 268 11 340 -20 78 -54 139 -106 189 -51 50 -140 103 -180
109 -11 1 -24 5 -30 8 -62 33 -387 5 -460 -40 -5 -3 -12 -6 -15 -6 -3 -1 -25
-11 -48 -24 -24 -12 -46 -21 -48 -19 -2 2 1 21 7 42 11 41 4 92 -14 103 -16
10 -105 11 -115 1z"/>
<path d="M12609 9744 c-35 -12 -86 -29 -114 -38 -27 -9 -55 -18 -62 -19 -7 -2
-16 -6 -19 -10 -4 -4 -17 -7 -29 -7 -11 0 -25 -4 -30 -8 -6 -5 -39 -17 -75
-27 -36 -11 -67 -22 -70 -25 -3 -3 -12 -6 -20 -8 -17 -3 -165 -50 -195 -62
-11 -4 -24 -7 -28 -8 -5 0 -22 -12 -37 -27 -53 -51 -47 -159 9 -185 14 -7 54
-12 88 -11 34 0 64 -3 67 -8 3 -4 -3 -37 -13 -72 -46 -154 -103 -345 -107
-359 -3 -8 -5 -16 -4 -18 0 -1 -7 -16 -15 -32 -9 -17 -14 -30 -11 -30 2 0 -9
-44 -26 -97 -52 -171 -67 -221 -89 -290 -11 -38 -24 -81 -29 -98 -4 -16 -33
-110 -63 -208 -31 -97 -58 -190 -62 -205 l-6 -27 298 0 297 0 27 88 c15 48 28
91 28 95 1 4 9 32 18 62 9 30 18 60 19 65 1 6 12 44 25 85 13 41 24 77 24 80
4 18 27 98 32 110 7 17 10 27 17 55 20 81 152 512 172 562 27 65 86 143 110
143 8 0 14 4 14 10 0 12 106 44 124 37 7 -3 17 -20 21 -39 11 -47 10 -46 35
-127 12 -41 29 -86 38 -99 22 -34 70 -52 130 -48 116 8 190 83 217 219 3 15 7
38 10 52 3 14 7 35 9 48 29 148 30 152 39 109 9 -44 48 -64 124 -63 37 0 70
-2 74 -5 5 -2 4 -17 -2 -32 -6 -15 -12 -34 -14 -42 -11 -42 -41 -142 -130
-430 -53 -173 -100 -328 -105 -345 -4 -16 -25 -84 -45 -150 -21 -66 -38 -124
-40 -130 -1 -5 -5 -17 -8 -25 -3 -8 -20 -64 -37 -125 -17 -60 -35 -117 -40
-126 -4 -9 -5 -20 -2 -25 4 -6 125 -10 300 -9 284 0 292 1 298 20 3 11 16 56
30 100 13 44 60 202 105 350 44 149 81 277 81 285 0 8 4 20 8 25 4 6 11 26 16
45 10 45 8 36 28 105 84 284 103 329 158 384 32 33 96 68 134 74 10 1 25 6 32
10 8 6 15 0 21 -16 9 -24 30 -98 36 -127 2 -8 4 -16 5 -17 2 -2 3 -6 4 -10 25
-94 54 -137 102 -146 78 -15 157 7 210 58 25 24 63 94 68 127 3 19 8 41 10 49
3 8 7 30 10 49 3 19 8 46 11 60 3 14 8 36 10 50 2 14 7 36 10 50 8 36 17 82
21 105 1 11 5 31 8 45 3 14 9 41 12 60 3 19 8 43 11 53 11 41 -174 78 -289 57
-24 -5 -57 -10 -74 -13 -17 -3 -40 -9 -50 -15 -11 -5 -23 -11 -29 -13 -5 -1
-19 -4 -29 -7 -11 -3 -49 -20 -85 -39 -35 -18 -66 -31 -69 -29 -2 3 1 21 8 41
16 49 5 99 -26 120 -27 18 -69 16 -147 -7 -53 -15 -49 -14 -67 -21 -15 -6
-165 -56 -185 -61 -5 -2 -17 -6 -25 -9 -27 -11 -105 -38 -122 -42 -9 -2 -74
-23 -144 -47 -92 -31 -136 -51 -158 -73 -16 -16 -27 -25 -23 -19 8 13 37 152
37 177 0 12 -16 25 -46 39 -57 25 -204 31 -279 12 -27 -7 -61 -15 -75 -18 -14
-2 -43 -12 -65 -22 -22 -10 -42 -18 -45 -19 -3 0 -28 -13 -57 -28 -29 -15 -54
-27 -57 -27 -3 0 0 15 6 33 21 68 10 120 -30 136 -36 14 -76 10 -153 -15z"/>
<path d="M17425 9760 c-16 -4 -54 -14 -82 -23 -29 -9 -53 -13 -53 -10 0 3 -6
1 -12 -4 -11 -9 -75 -33 -103 -39 -5 -1 -68 -21 -140 -45 -71 -23 -135 -44
-140 -45 -6 -1 -60 -18 -120 -39 -116 -39 -139 -56 -148 -112 -6 -39 17 -87
49 -102 14 -6 56 -11 94 -11 57 0 71 -3 79 -19 6 -10 8 -21 5 -23 -2 -3 -7
-15 -9 -27 -9 -38 -13 -55 -40 -151 -72 -256 -70 -249 -79 -287 -3 -10 -14
-49 -26 -88 -11 -38 -23 -79 -25 -90 -3 -11 -18 -67 -35 -125 -37 -129 -123
-434 -157 -554 -13 -48 -21 -91 -18 -94 11 -12 546 -8 554 3 7 9 19 45 27 85
2 8 38 134 79 280 42 146 78 272 80 280 1 8 11 42 21 75 10 33 19 65 20 71 1
6 25 91 53 190 56 194 90 264 156 321 74 65 131 86 227 87 44 0 65 -6 96 -26
70 -47 73 -87 17 -278 -39 -132 -83 -285 -89 -310 -2 -8 -20 -70 -40 -137 -53
-181 -73 -274 -70 -329 3 -55 12 -102 22 -118 3 -6 7 -17 8 -24 6 -40 99 -132
167 -165 145 -71 321 -58 486 34 86 48 129 84 203 167 65 73 86 164 51 222
-37 64 -109 72 -191 22 -88 -54 -110 -64 -134 -60 -29 4 -28 21 12 153 12 39
28 93 36 120 20 69 19 65 65 215 22 74 42 142 44 150 72 303 77 422 23 561
-13 32 -26 59 -30 59 -5 0 -8 6 -8 12 0 21 -98 105 -155 132 -79 37 -144 50
-260 50 -81 0 -210 -15 -210 -24 0 -1 -8 -3 -17 -6 -47 -11 -85 -26 -141 -55
-47 -24 -50 -24 -42 2 34 105 -4 154 -100 129z"/>
<path d="M1165 9693 c-66 -23 -134 -46 -145 -48 -3 0 -11 -4 -17 -8 -7 -5 -21
-10 -30 -12 -44 -9 -446 -155 -469 -169 -29 -20 -46 -57 -40 -89 3 -12 5 -27
5 -32 2 -25 64 -48 128 -47 l64 1 -5 -32 c-3 -18 -12 -51 -20 -75 -8 -23 -15
-44 -15 -47 0 -3 -8 -31 -18 -63 -9 -31 -18 -61 -19 -67 -2 -5 -17 -57 -34
-115 -17 -58 -33 -109 -34 -115 -15 -57 -20 -71 -25 -80 -3 -5 -7 -18 -8 -27
-2 -10 -23 -86 -48 -169 -25 -83 -47 -161 -49 -175 -3 -13 -7 -28 -11 -33 -7
-13 -7 -137 0 -176 9 -48 52 -127 89 -165 135 -139 400 -157 589 -40 27 17 50
30 53 30 7 0 46 34 101 88 64 64 100 124 111 183 10 53 0 82 -41 123 -27 26
-33 28 -90 23 -34 -3 -63 -10 -65 -16 -2 -6 -7 -11 -12 -11 -5 0 -32 -16 -62
-35 -29 -20 -62 -34 -73 -33 -29 4 -28 8 57 293 16 55 32 107 35 115 3 8 7 20
9 25 1 6 43 145 94 310 50 165 109 359 131 430 54 176 58 213 27 249 -32 38
-76 40 -163 9z"/>
<path d="M6542 9709 c-12 -5 -22 -7 -22 -4 0 2 -12 -2 -27 -10 -15 -8 -30 -12
-35 -9 -4 3 -8 1 -8 -4 0 -5 -6 -9 -12 -9 -7 -1 -71 -22 -143 -48 -71 -26
-137 -48 -145 -50 -8 -2 -15 -4 -15 -5 0 -1 -7 -3 -15 -5 -8 -2 -78 -26 -155
-54 -77 -28 -141 -51 -142 -51 -2 0 -12 -14 -22 -31 -35 -57 4 -138 68 -140
14 -1 45 -1 68 -1 23 1 45 -2 47 -6 3 -5 -18 -84 -46 -177 -27 -94 -54 -183
-58 -200 -11 -40 -32 -112 -65 -220 -15 -49 -28 -97 -29 -105 0 -8 -4 -17 -8
-21 -4 -3 -9 -18 -12 -35 -2 -16 -8 -40 -13 -54 -6 -14 -14 -41 -18 -60 -4
-19 -10 -39 -13 -45 -4 -5 -7 -14 -8 -20 -1 -5 -5 -26 -9 -45 -11 -51 -7 -215
4 -215 2 0 4 -8 6 -19 8 -43 77 -128 135 -165 196 -127 472 -78 671 119 116
114 148 195 109 275 -22 46 -60 69 -111 67 -32 -1 -54 -11 -143 -66 -33 -20
-68 -36 -79 -36 -28 0 -27 4 104 435 21 72 44 144 50 160 5 17 12 39 14 50 5
23 43 143 52 165 3 8 6 18 5 22 -1 4 3 20 10 35 6 15 12 33 14 40 2 13 33 115
70 233 60 196 66 222 52 260 -16 46 -73 68 -126 49z"/>
<path d="M7877 9714 c-1 -1 -27 -5 -57 -8 -59 -5 -92 -11 -155 -28 -22 -5 -47
-12 -56 -13 -32 -6 -175 -69 -236 -104 -106 -61 -173 -112 -269 -208 -180
-180 -306 -414 -348 -650 -16 -92 -12 -383 6 -383 3 0 10 -15 13 -32 10 -46
61 -137 112 -203 252 -321 785 -337 1243 -36 94 61 144 110 177 173 30 60 13
142 -38 179 -46 32 -102 21 -249 -49 -220 -105 -350 -132 -487 -102 -91 21
-174 91 -194 164 -15 54 -17 126 -4 134 5 4 64 7 130 8 113 1 259 10 301 18
249 50 416 122 579 251 21 17 43 36 49 43 6 7 22 25 36 40 14 15 30 37 37 47
30 50 65 120 69 139 18 83 21 113 17 172 -4 61 -17 109 -54 192 -8 18 -17 32
-21 32 -5 0 -8 5 -8 10 0 21 -106 111 -172 145 -37 19 -70 35 -73 35 -3 0 -10
2 -17 4 -59 17 -149 29 -231 31 -53 1 -98 0 -100 -1z m63 -381 c29 -21 52 -70
49 -106 -4 -35 -36 -85 -84 -129 -45 -42 -220 -125 -310 -147 -98 -24 -175
-34 -175 -24 0 18 56 112 106 179 97 130 183 202 279 235 33 12 114 6 135 -8z"/>
<path d="M10868 9715 c-2 -2 -29 -5 -61 -9 -32 -3 -62 -8 -66 -11 -5 -2 -23
-6 -42 -9 -19 -2 -56 -12 -84 -21 -56 -19 -247 -108 -267 -124 -7 -6 -38 -29
-68 -51 -231 -169 -414 -468 -466 -759 -21 -123 -25 -282 -7 -366 29 -141 116
-282 241 -388 44 -37 176 -101 254 -122 133 -36 359 -27 528 21 97 28 272 116
318 161 7 7 17 13 21 13 5 0 50 42 100 93 131 131 256 324 316 487 27 74 63
190 59 190 -2 0 1 11 6 25 25 66 29 277 6 335 -3 8 -7 26 -10 40 -17 94 -96
231 -177 306 -102 93 -242 161 -374 181 -33 4 -223 11 -227 8z m99 -380 c99
-41 133 -151 108 -345 -4 -30 -9 -58 -11 -61 -2 -3 -6 -21 -9 -40 -25 -143
-126 -400 -198 -502 -83 -119 -189 -190 -279 -188 -142 3 -203 92 -192 281 2
52 6 104 8 115 5 39 27 140 33 155 3 8 7 20 8 25 23 96 91 244 161 350 117
179 257 258 371 210z"/>
<path d="M15837 9714 c-1 -1 -32 -5 -69 -8 -37 -4 -82 -11 -99 -16 -18 -5 -36
-7 -40 -4 -5 3 -9 0 -9 -7 0 -7 -3 -10 -6 -6 -3 3 -25 -1 -47 -10 -23 -8 -50
-16 -61 -18 -10 -3 -24 -9 -32 -16 -8 -6 -14 -9 -14 -6 0 10 -148 -70 -224
-121 -87 -57 -246 -213 -312 -307 -47 -65 -119 -187 -115 -193 1 -1 -5 -15
-12 -30 -8 -15 -20 -45 -27 -67 -7 -22 -15 -44 -19 -50 -3 -5 -6 -14 -8 -20
-1 -5 -4 -19 -7 -30 -30 -130 -40 -207 -38 -295 3 -97 14 -167 33 -217 6 -16
12 -35 14 -44 7 -35 93 -164 142 -211 147 -146 320 -210 548 -203 123 3 137 5
240 31 204 52 431 170 542 284 29 30 77 120 64 120 -5 0 -7 9 -4 20 9 35 -25
95 -66 118 -21 12 -40 20 -42 17 -3 -2 -19 -7 -37 -10 -18 -3 -81 -28 -140
-56 -209 -100 -260 -114 -412 -114 -75 0 -105 5 -141 22 -92 42 -145 111 -152
201 -8 93 -16 88 151 89 141 2 229 7 282 18 14 3 43 8 65 11 63 10 238 70 315
109 191 95 326 227 383 372 22 57 27 87 28 164 0 120 -35 216 -112 303 -36 40
-140 119 -159 121 -3 0 -9 3 -15 6 -5 4 -23 10 -40 14 -44 12 -45 12 -50 15
-7 3 -14 5 -65 15 -40 7 -226 15 -233 9z m63 -385 c44 -27 57 -86 32 -149 -32
-80 -240 -203 -397 -234 -11 -2 -31 -7 -45 -10 -14 -3 -46 -8 -72 -10 l-48 -5
24 47 c34 67 131 200 181 247 85 81 118 103 195 129 30 10 102 2 130 -15z"/>
<path d="M19824 8162 c-6 -4 -15 -20 -21 -37 -9 -28 -5 -52 18 -110 22 -55 37
-114 34 -131 -2 -10 -4 -21 -4 -23 -1 -3 -6 0 -13 7 -6 6 -11 27 -10 46 2 44
-24 57 -30 16 -10 -69 36 -124 77 -94 16 12 20 26 19 69 -1 30 -6 60 -12 67
-22 28 -47 154 -32 163 12 7 24 -39 17 -65 -3 -11 -1 -20 4 -20 5 0 12 0 17 0
11 0 10 72 -1 98 -10 22 -41 29 -63 14z"/>
<path d="M19923 8161 c-4 -3 -8 -78 -8 -166 1 -143 2 -160 18 -163 19 -4 20
-1 18 87 -1 96 6 79 23 -57 8 -55 36 -32 36 31 0 20 5 37 10 37 6 0 10 -22 10
-50 0 -38 4 -50 15 -50 18 0 17 -5 19 175 2 154 1 164 -19 161 -24 -4 -24 -4
-41 -121 -8 -64 -22 -91 -22 -44 0 41 -9 125 -17 148 -5 17 -27 23 -42 12z
m107 -197 c0 -14 -4 -23 -9 -20 -5 3 -7 15 -4 26 7 28 13 25 13 -6z"/>
</g>
</svg>
